SC Black Italic Display 1292 - 365.ufo
<glyph name="A" format="1">
  <advance width="1197"/>
  <unicode hex="0041"/>
  <outline>
    <contour>
      <point x="666" y="1292" type="move" name="top"/>
    </contour>
    <contour>
      <point x="975" y="17" type="move" name="ogonek"/>
    </contour>
    <contour>
      <point x="458" y="0" type="move" name="bottom"/>
    </contour>
    <contour>
      <point x="-97" y="31" type="line"/>
      <point x="-98" y="0" type="line"/>
      <point x="314" y="0" type="line"/>
      <point x="318" y="31" type="line"/>
      <point x="134" y="80" type="line"/>
      <point x="501" y="1005" type="line"/>
      <point x="574" y="1216" type="line"/>
      <point x="530" y="1182" type="line"/>
      <point x="562" y="945" type="line"/>
      <point x="709" y="63" type="line"/>
      <point x="570" y="33" type="line"/>
      <point x="566" y="0" type="line"/>
      <point x="1185" y="0" type="line"/>
      <point x="1188" y="33" type="line"/>
      <point x="1083" y="63" type="line"/>
      <point x="863" y="1295" type="line"/>
      <point x="560" y="1293" type="line"/>
      <point x="40" y="82" type="line"/>
    </contour>
    <contour>
      <point x="213" y="430" type="line"/>
      <point x="214" y="373" type="line"/>
      <point x="773" y="373" type="line"/>
      <point x="773" y="430" type="line"/>
    </contour>
  </outline>
</glyph>
<glyph name="B" format="1">
  <advance width="1232"/>
  <unicode hex="0042"/>
  <outline>
    <contour>
      <point x="698" y="1292" type="move" name="top"/>
    </contour>
    <contour>
      <point x="503" y="0" type="move" name="bottom"/>
    </contour>
    <contour>
      <point x="-32" y="33" type="line"/>
      <point x="-36" y="0" type="line"/>
      <point x="256" y="0" type="line" smooth="yes"/>
      <point x="374" y="0"/>
      <point x="419" y="-18"/>
      <point x="614" y="-18" type="curve"/>
      <point x="942" y="-18"/>
      <point x="1200" y="102"/>
      <point x="1198" y="405" type="curve"/>
      <point x="1196" y="558"/>
      <point x="1079" y="676"/>
      <point x="848" y="676" type="curve"/>
      <point x="1077" y="710"/>
      <point x="1202" y="843"/>
      <point x="1201" y="1037" type="curve"/>
      <point x="1200" y="1168"/>
      <point x="1082" y="1306"/>
      <point x="765" y="1306" type="curve"/>
      <point x="565" y="1306"/>
      <point x="559" y="1294"/>
      <point x="435" y="1292" type="curve"/>
      <point x="143" y="1292" type="line"/>
      <point x="139" y="1261" type="line"/>
      <point x="257" y="1228" type="line"/>
      <point x="97" y="63" type="line"/>
    </contour>
    <contour>
      <point x="584" y="35" type="curve"/>
      <point x="496" y="35"/>
      <point x="451" y="57"/>
      <point x="345" y="81" type="curve"/>
      <point x="438" y="3" type="line"/>
      <point x="526" y="645" type="line"/>
      <point x="484" y="625" type="line"/>
      <point x="499" y="632"/>
      <point x="534" y="634"/>
      <point x="616" y="634" type="curve"/>
      <point x="746" y="634"/>
      <point x="844" y="570"/>
      <point x="845" y="419" type="curve"/>
      <point x="847" y="178"/>
      <point x="746" y="35"/>
    </contour>
    <contour>
      <point x="622" y="690" type="curve"/>
      <point x="529" y="690"/>
      <point x="522" y="689"/>
      <point x="504" y="692" type="curve"/>
      <point x="528" y="670" type="line"/>
      <point x="614" y="1284" type="line"/>
      <point x="485" y="1164" type="line"/>
      <point x="602" y="1249"/>
      <point x="606" y="1253"/>
      <point x="673" y="1253" type="curve"/>
      <point x="780" y="1253"/>
      <point x="865" y="1174"/>
      <point x="866" y="1029" type="curve"/>
      <point x="867" y="812"/>
      <point x="738" y="690"/>
    </contour>
  </outline>
</glyph>
<glyph name="C" format="1">
  <advance width="1176"/>
  <unicode hex="0043"/>
  <outline>
    <contour>
      <point x="903" y="1292" type="move" name="top"/>
    </contour>
    <contour>
      <point x="669" y="0" type="move" name="bottom"/>
    </contour>
    <contour>
      <point x="564" y="-20" type="curve"/>
      <point x="860" y="-20"/>
      <point x="954" y="51"/>
      <point x="1037" y="50" type="curve"/>
      <point x="1111" y="406" type="line"/>
      <point x="930" y="406" type="line"/>
      <point x="912" y="340"/>
      <point x="844" y="154"/>
      <point x="821" y="120" type="curve"/>
      <point x="793" y="62"/>
      <point x="712" y="29"/>
      <point x="638" y="29" type="curve"/>
      <point x="466" y="29"/>
      <point x="429" y="307"/>
      <point x="427" y="471" type="curve"/>
      <point x="424" y="890"/>
      <point x="547" y="1258"/>
      <point x="763" y="1258" type="curve"/>
      <point x="812" y="1258"/>
      <point x="869" y="1255"/>
      <point x="899" y="1228" type="curve"/>
      <point x="922" y="871" type="line"/>
      <point x="1144" y="871" type="line"/>
      <point x="1205" y="1261" type="line"/>
      <point x="1085" y="1261"/>
      <point x="1013" y="1310"/>
      <point x="770" y="1310" type="curve"/>
      <point x="275" y="1310"/>
      <point x="54" y="907"/>
      <point x="57" y="517" type="curve"/>
      <point x="59" y="251"/>
      <point x="168" y="-20"/>
    </contour>
  </outline>
</glyph>
<glyph name="D" format="1">
  <advance width="1323"/>
  <unicode hex="0044"/>
  <outline>
    <contour>
      <point x="750" y="1292" type="move" name="top"/>
    </contour>
    <contour>
      <point x="543" y="0" type="move" name="bottom"/>
    </contour>
    <contour>
      <point x="-31" y="34" type="line"/>
      <point x="-35" y="0" type="line"/>
      <point x="245" y="0" type="line"/>
      <point x="320" y="0"/>
      <point x="470" y="-20"/>
      <point x="570" y="-20" type="curve"/>
      <point x="1084" y="-20"/>
      <point x="1320" y="351"/>
      <point x="1317" y="804" type="curve"/>
      <point x="1315" y="1060"/>
      <point x="1197" y="1306"/>
      <point x="796" y="1306" type="curve"/>
      <point x="688" y="1306"/>
      <point x="566" y="1292"/>
      <point x="432" y="1292" type="curve"/>
      <point x="144" y="1292" type="line"/>
      <point x="140" y="1261" type="line"/>
      <point x="248" y="1228" type="line"/>
      <point x="88" y="63" type="line"/>
    </contour>
    <contour>
      <point x="558" y="29" type="curve"/>
      <point x="448" y="29"/>
      <point x="455" y="58"/>
      <point x="350" y="68" type="curve"/>
      <point x="439" y="25" type="line"/>
      <point x="609" y="1268" type="line"/>
      <point x="575" y="1226" type="line"/>
      <point x="600" y="1238"/>
      <point x="632" y="1258"/>
      <point x="726" y="1258" type="curve"/>
      <point x="912" y="1258"/>
      <point x="956" y="1098"/>
      <point x="958" y="821" type="curve"/>
      <point x="961" y="503"/>
      <point x="890" y="29"/>
    </contour>
  </outline>
</glyph>
<glyph name="E" format="1">
  <advance width="1145"/>
  <unicode hex="0045"/>
  <outline>
    <contour>
      <point x="132" y="1292" type="move" name="topleft"/>
    </contour>
    <contour>
      <point x="685" y="1292" type="move" name="top"/>
    </contour>
    <contour>
      <point x="987" y="18" type="move" name="ogonek"/>
    </contour>
    <contour>
      <point x="545" y="0" type="move" name="bottom"/>
    </contour>
    <contour>
      <point x="-31" y="34" type="line"/>
      <point x="-36" y="0" type="line"/>
      <point x="1002" y="0" type="line"/>
      <point x="1116" y="405" type="line"/>
      <point x="951" y="421" type="line"/>
      <point x="765" y="68" type="line"/>
      <point x="441" y="45" type="line"/>
      <point x="521" y="632" type="line"/>
      <point x="904" y="620" type="line"/>
      <point x="923" y="714" type="line"/>
      <point x="529" y="688" type="line"/>
      <point x="606" y="1247" type="line"/>
      <point x="881" y="1225" type="line"/>
      <point x="968" y="960" type="line"/>
      <point x="1102" y="960" type="line"/>
      <point x="1120" y="1292" type="line"/>
      <point x="143" y="1292" type="line"/>
      <point x="139" y="1261" type="line"/>
      <point x="247" y="1228" type="line"/>
      <point x="87" y="63" type="line"/>
    </contour>
  </outline>
</glyph>
<glyph name="F" format="1">
  <advance width="1077"/>
  <unicode hex="0046"/>
  <outline>
    <contour>
      <point x="594" y="-143" type="move" name="btm"/>
    </contour>
    <contour>
      <point x="682" y="1292" type="move" name="top"/>
    </contour>
    <contour>
      <point x="1126" y="1292" type="line"/>
      <point x="143" y="1292" type="line"/>
      <point x="139" y="1261" type="line"/>
      <point x="247" y="1228" type="line"/>
      <point x="87" y="63" type="line"/>
      <point x="-32" y="33" type="line"/>
      <point x="-36" y="0" type="line"/>
      <point x="710" y="0" type="line"/>
      <point x="714" y="34" type="line"/>
      <point x="446" y="82" type="line"/>
      <point x="521" y="632" type="line"/>
      <point x="895" y="620" type="line"/>
      <point x="914" y="714" type="line"/>
      <point x="529" y="688" type="line"/>
      <point x="606" y="1247" type="line"/>
      <point x="887" y="1225" type="line"/>
      <point x="973" y="960" type="line"/>
      <point x="1108" y="960" type="line"/>
    </contour>
  </outline>
</glyph>
<glyph name="G" format="1">
  <advance width="1265"/>
  <unicode hex="0047"/>
  <outline>
    <contour>
      <point x="818" y="1292" type="move" name="top"/>
    </contour>
    <contour>
      <point x="610" y="0" type="move" name="bottom"/>
    </contour>
    <contour>
      <point x="615" y="-20" type="curve"/>
      <point x="787" y="-20"/>
      <point x="900" y="18"/>
      <point x="1002" y="42" type="curve"/>
      <point x="1049" y="52"/>
      <point x="1095" y="62"/>
      <point x="1141" y="62" type="curve"/>
      <point x="1218" y="631" type="line"/>
      <point x="737" y="631" type="line"/>
      <point x="733" y="601" type="line"/>
      <point x="876" y="563" type="line"/>
      <point x="812" y="67" type="line"/>
      <point x="767" y="44"/>
      <point x="713" y="29"/>
      <point x="651" y="29" type="curve"/>
      <point x="433" y="29"/>
      <point x="434" y="307"/>
      <point x="432" y="471" type="curve"/>
      <point x="429" y="908"/>
      <point x="535" y="1258"/>
      <point x="799" y="1258" type="curve"/>
      <point x="881" y="1258"/>
      <point x="945" y="1229"/>
      <point x="960" y="1210" type="curve"/>
      <point x="994" y="945" type="line"/>
      <point x="1206" y="945" type="line"/>
      <point x="1255" y="1261" type="line"/>
      <point x="1222" y="1261"/>
      <point x="1193" y="1265"/>
      <point x="1165" y="1270" type="curve"/>
      <point x="1088" y="1284"/>
      <point x="1009" y="1310"/>
      <point x="806" y="1310" type="curve"/>
      <point x="259" y="1310"/>
      <point x="57" y="926"/>
      <point x="60" y="517" type="curve"/>
      <point x="62" y="251"/>
      <point x="171" y="-20"/>
    </contour>
  </outline>
</glyph>
<glyph name="H" format="1">
  <advance width="1401"/>
  <unicode hex="0048"/>
  <outline>
    <contour>
      <point x="823" y="1292" type="move" name="top"/>
    </contour>
    <contour>
      <point x="648" y="0" type="move" name="bottom"/>
    </contour>
    <contour>
      <point x="-32" y="33" type="line"/>
      <point x="-36" y="0" type="line"/>
      <point x="558" y="0" type="line"/>
      <point x="564" y="33" type="line"/>
      <point x="443" y="63" type="line"/>
      <point x="603" y="1228" type="line"/>
      <point x="743" y="1261" type="line"/>
      <point x="746" y="1292" type="line"/>
      <point x="143" y="1292" type="line"/>
      <point x="139" y="1261" type="line"/>
      <point x="247" y="1228" type="line"/>
      <point x="87" y="63" type="line"/>
    </contour>
    <contour>
      <point x="717" y="34" type="line"/>
      <point x="713" y="0" type="line"/>
      <point x="1306" y="0" type="line"/>
      <point x="1311" y="34" type="line"/>
      <point x="1204" y="63" type="line"/>
      <point x="1364" y="1228" type="line"/>
      <point x="1484" y="1261" type="line"/>
      <point x="1486" y="1292" type="line"/>
      <point x="894" y="1292" type="line"/>
      <point x="890" y="1261" type="line"/>
      <point x="1008" y="1228" type="line"/>
      <point x="848" y="63" type="line"/>
    </contour>
    <contour>
      <point x="1001" y="693" type="line"/>
      <point x="443" y="696" type="line"/>
      <point x="404" y="637" type="line"/>
      <point x="962" y="634" type="line"/>
    </contour>
  </outline>
</glyph>
<glyph name="I" format="1">
  <advance width="698"/>
  <unicode hex="0049"/>
  <outline>
    <contour>
      <point x="485" y="-143" type="move" name="btm"/>
    </contour>
    <contour>
      <point x="184" y="1292" type="move" name="topleft"/>
    </contour>
    <contour>
      <point x="490" y="1292" type="move" name="top"/>
    </contour>
    <contour>
      <point x="526" y="17" type="move" name="ogonek"/>
    </contour>
    <contour>
      <point x="318" y="0" type="move" name="bottom"/>
    </contour>
    <contour>
      <point x="-12" y="34" type="line"/>
      <point x="-17" y="0" type="line"/>
      <point x="577" y="0" type="line"/>
      <point x="582" y="34" type="line"/>
      <point x="462" y="63" type="line"/>
      <point x="622" y="1228" type="line"/>
      <point x="762" y="1261" type="line"/>
      <point x="766" y="1292" type="line"/>
      <point x="163" y="1292" type="line"/>
      <point x="158" y="1261" type="line"/>
      <point x="267" y="1228" type="line"/>
      <point x="108" y="63" type="line"/>
    </contour>
  </outline>
</glyph>
<glyph name="J" format="1">
  <advance width="645"/>
  <unicode hex="004A"/>
  <outline>
    <contour>
      <point x="266" y="-143" type="move" name="btm"/>
    </contour>
    <contour>
      <point x="467" y="1292" type="move" name="top"/>
    </contour>
    <contour>
      <point x="-135" y="-229" type="curve"/>
      <point x="-102" y="-271" type="line"/>
      <point x="252" y="-216"/>
      <point x="405" y="-64"/>
      <point x="456" y="125" type="curve"/>
      <point x="517" y="351"/>
      <point x="540" y="680"/>
      <point x="608" y="1228" type="curve"/>
      <point x="729" y="1261" type="line"/>
      <point x="733" y="1292" type="line"/>
      <point x="139" y="1292" type="line"/>
      <point x="134" y="1261" type="line"/>
      <point x="260" y="1228" type="line"/>
      <point x="227" y="860"/>
      <point x="179" y="456"/>
      <point x="126" y="130" type="curve"/>
      <point x="100" y="-25"/>
      <point x="35" y="-172"/>
    </contour>
  </outline>
</glyph>
<glyph name="K" format="1">
  <advance width="1279"/>
  <unicode hex="004B"/>
  <outline>
    <contour>
      <point x="849" y="1292" type="move" name="top"/>
    </contour>
    <contour>
      <point x="747" y="0" type="move" name="bottom"/>
    </contour>
    <contour>
      <point x="-32" y="33" type="line"/>
      <point x="-36" y="0" type="line"/>
      <point x="553" y="0" type="line"/>
      <point x="559" y="33" type="line"/>
      <point x="438" y="63" type="line"/>
      <point x="598" y="1228" type="line"/>
      <point x="738" y="1261" type="line"/>
      <point x="741" y="1292" type="line"/>
      <point x="143" y="1292" type="line"/>
      <point x="139" y="1261" type="line"/>
      <point x="247" y="1228" type="line"/>
      <point x="87" y="63" type="line"/>
    </contour>
    <contour>
      <point x="439" y="543" type="line"/>
      <point x="468" y="485" type="line"/>
      <point x="1255" y="1224" type="line"/>
      <point x="1386" y="1263" type="line"/>
      <point x="1390" y="1292" type="line"/>
      <point x="997" y="1292" type="line"/>
      <point x="992" y="1263" type="line"/>
      <point x="1129" y="1225" type="line"/>
    </contour>
    <contour>
      <point x="912" y="0" type="curve"/>
      <point x="1342" y="0" type="line"/>
      <point x="1348" y="35" type="line"/>
      <point x="1274" y="57" type="line"/>
      <point x="1200" y="96"/>
      <point x="1100" y="320"/>
      <point x="1013" y="502" type="curve"/>
      <point x="926" y="685"/>
      <point x="890" y="767"/>
      <point x="842" y="863" type="curve"/>
      <point x="589" y="647" type="line"/>
      <point x="628" y="570"/>
      <point x="725" y="290"/>
      <point x="788" y="167" type="curve"/>
      <point x="845" y="57"/>
      <point x="852" y="0"/>
    </contour>
  </outline>
</glyph>
<glyph name="L" format="1">
  <advance width="1113"/>
  <unicode hex="004C"/>
  <outline>
    <contour>
      <point x="786" y="965" type="move" name="car"/>
    </contour>
    <contour>
      <point x="474" y="1292" type="move" name="top"/>
    </contour>
    <contour>
      <point x="549" y="0" type="move" name="bottom"/>
    </contour>
    <contour>
      <point x="-32" y="33" type="line"/>
      <point x="-36" y="0" type="line"/>
      <point x="986" y="0" type="line"/>
      <point x="1095" y="460" type="line"/>
      <point x="930" y="477" type="line"/>
      <point x="756" y="73" type="line"/>
      <point x="440" y="45" type="line"/>
      <point x="603" y="1228" type="line"/>
      <point x="742" y="1261" type="line"/>
      <point x="745" y="1292" type="line"/>
      <point x="143" y="1292" type="line"/>
      <point x="139" y="1261" type="line"/>
      <point x="247" y="1228" type="line"/>
      <point x="87" y="63" type="line"/>
    </contour>
  </outline>
</glyph>
<glyph name="M" format="1">
  <advance width="1714"/>
  <unicode hex="004D"/>
  <outline>
    <contour>
      <point x="955" y="1292" type="move" name="top"/>
    </contour>
    <contour>
      <point x="729" y="0" type="move" name="bottom"/>
    </contour>
    <contour>
      <point x="1179" y="1292" type="line"/>
      <point x="888" y="459" type="line"/>
      <point x="808" y="206" type="line"/>
      <point x="790" y="458" type="line"/>
      <point x="712" y="1292" type="line"/>
      <point x="200" y="1292" type="line"/>
      <point x="195" y="1261" type="line"/>
      <point x="351" y="1228" type="line"/>
      <point x="64" y="91" type="line"/>
      <point x="-80" y="34" type="line"/>
      <point x="-82" y="0" type="line"/>
      <point x="311" y="0" type="line"/>
      <point x="315" y="34" type="line"/>
      <point x="154" y="91" type="line"/>
      <point x="341" y="909" type="line"/>
      <point x="403" y="1185" type="line"/>
      <point x="419" y="912" type="line"/>
      <point x="509" y="0" type="line"/>
      <point x="802" y="0" type="line"/>
      <point x="1119" y="910" type="line"/>
      <point x="1207" y="1180" type="line"/>
      <point x="1197" y="910" type="line"/>
      <point x="1155" y="63" type="line"/>
      <point x="1010" y="33" type="line"/>
      <point x="1005" y="0" type="line"/>
      <point x="1660" y="0" type="line"/>
      <point x="1664" y="31" type="line"/>
      <point x="1509" y="63" type="line"/>
      <point x="1550" y="1228" type="line"/>
      <point x="1713" y="1262" type="line"/>
      <point x="1718" y="1292" type="line"/>
    </contour>
  </outline>
</glyph>
<glyph name="N" format="1">
  <advance width="1273"/>
  <unicode hex="004E"/>
  <outline>
    <contour>
      <point x="922" y="1292" type="move" name="top"/>
    </contour>
    <contour>
      <point x="742" y="0" type="move" name="bottom"/>
    </contour>
    <contour>
      <point x="-32" y="31" type="line"/>
      <point x="-33" y="0" type="line"/>
      <point x="383" y="0" type="line"/>
      <point x="387" y="31" type="line"/>
      <point x="188" y="84" type="line"/>
      <point x="323" y="1254" type="line"/>
      <point x="269" y="1247" type="line"/>
      <point x="389" y="918" type="line"/>
      <point x="833" y="0" type="line"/>
      <point x="1055" y="0" type="line"/>
      <point x="1221" y="1208" type="line"/>
      <point x="1363" y="1261" type="line"/>
      <point x="1365" y="1292" type="line"/>
      <point x="948" y="1292" type="line"/>
      <point x="944" y="1261" type="line"/>
      <point x="1135" y="1208" type="line"/>
      <point x="1034" y="216" type="line"/>
      <point x="1075" y="271" type="line"/>
      <point x="966" y="523" type="line"/>
      <point x="593" y="1292" type="line"/>
      <point x="141" y="1292" type="line"/>
      <point x="136" y="1258" type="line"/>
      <point x="268" y="1226" type="line"/>
      <point x="102" y="84" type="line"/>
    </contour>
  </outline>
</glyph>
<glyph name="O" format="1">
  <advance width="1301"/>
  <unicode hex="004F"/>
  <outline>
    <contour>
      <point x="152" y="1292" type="move" name="topleft"/>
    </contour>
    <contour>
      <point x="683" y="647" type="move" name="center"/>
    </contour>
    <contour>
      <point x="595" y="0" type="move" name="bottom"/>
    </contour>
    <contour>
      <point x="766" y="1292" type="move" name="top"/>
    </contour>
    <contour>
      <point x="1142" y="1292" type="move" name="topright"/>
    </contour>
    <contour>
      <point x="779" y="18" type="move" name="ogonek"/>
    </contour>
    <contour>
      <point x="581" y="-21" type="curve"/>
      <point x="1075" y="-21"/>
      <point x="1297" y="375"/>
      <point x="1293" y="769" type="curve"/>
      <point x="1291" y="1029"/>
      <point x="1192" y="1309"/>
      <point x="775" y="1309" type="curve"/>
      <point x="276" y="1309"/>
      <point x="55" y="913"/>
      <point x="58" y="521" type="curve"/>
      <point x="60" y="261"/>
      <point x="161" y="-21"/>
    </contour>
    <contour>
      <point x="593" y="30" type="curve"/>
      <point x="429" y="30"/>
      <point x="415" y="315"/>
      <point x="414" y="469" type="curve"/>
      <point x="411" y="873"/>
      <point x="537" y="1257"/>
      <point x="757" y="1258" type="curve"/>
      <point x="933" y="1259"/>
      <point x="936" y="971"/>
      <point x="937" y="824" type="curve"/>
      <point x="941" y="411"/>
      <point x="812" y="30"/>
    </contour>
  </outline>
</glyph>
<glyph name="P" format="1">
  <advance width="1174"/>
  <unicode hex="0050"/>
  <outline>
    <contour>
      <point x="283" y="-144" type="move" name="btm"/>
    </contour>
    <contour>
      <point x="752" y="1292" type="move" name="top"/>
    </contour>
    <contour>
      <point x="-32" y="33" type="line"/>
      <point x="-36" y="0" type="line"/>
      <point x="703" y="0" type="line"/>
      <point x="706" y="34" type="line"/>
      <point x="437" y="82" type="line"/>
      <point x="599" y="1261" type="line"/>
      <point x="587" y="1244" type="line"/>
      <point x="614" y="1248"/>
      <point x="634" y="1253"/>
      <point x="683" y="1253" type="curve"/>
      <point x="805" y="1253"/>
      <point x="846" y="1141"/>
      <point x="848" y="982" type="curve"/>
      <point x="849" y="812"/>
      <point x="780" y="499"/>
      <point x="568" y="499" type="curve"/>
      <point x="546" y="499"/>
      <point x="515" y="501"/>
      <point x="468" y="513" type="curve"/>
      <point x="462" y="452" type="line"/>
      <point x="504" y="444"/>
      <point x="569" y="440"/>
      <point x="620" y="440" type="curve"/>
      <point x="1132" y="440"/>
      <point x="1210" y="776"/>
      <point x="1208" y="946" type="curve"/>
      <point x="1207" y="1163"/>
      <point x="1063" y="1303"/>
      <point x="756" y="1301" type="curve"/>
      <point x="612" y="1300"/>
      <point x="503" y="1292"/>
      <point x="420" y="1292" type="curve"/>
      <point x="143" y="1292" type="line"/>
      <point x="139" y="1261" type="line"/>
      <point x="247" y="1228" type="line"/>
      <point x="87" y="63" type="line"/>
    </contour>
  </outline>
</glyph>
<glyph name="Q" format="1">
  <advance width="1301"/>
  <unicode hex="0051"/>
  <outline>
    <contour>
      <point x="902" y="-371" type="curve"/>
      <point x="1027" y="-371"/>
      <point x="1142" y="-337"/>
      <point x="1200" y="-301" type="curve"/>
      <point x="1198" y="-118" type="line"/>
      <point x="1121" y="-141"/>
      <point x="1049" y="-153"/>
      <point x="976" y="-153" type="curve"/>
      <point x="828" y="-153"/>
      <point x="693" y="-141"/>
      <point x="694" y="6" type="curve"/>
      <point x="637" y="-8" type="line"/>
      <point x="501" y="-210"/>
      <point x="639" y="-371"/>
    </contour>
    <contour>
      <point x="581" y="-21" type="curve"/>
      <point x="1075" y="-21"/>
      <point x="1297" y="375"/>
      <point x="1293" y="769" type="curve"/>
      <point x="1291" y="1029"/>
      <point x="1192" y="1309"/>
      <point x="775" y="1309" type="curve"/>
      <point x="276" y="1309"/>
      <point x="55" y="913"/>
      <point x="58" y="521" type="curve"/>
      <point x="60" y="261"/>
      <point x="161" y="-21"/>
    </contour>
    <contour>
      <point x="593" y="30" type="curve"/>
      <point x="429" y="30"/>
      <point x="415" y="315"/>
      <point x="414" y="469" type="curve"/>
      <point x="411" y="873"/>
      <point x="537" y="1257"/>
      <point x="757" y="1258" type="curve"/>
      <point x="933" y="1259"/>
      <point x="936" y="971"/>
      <point x="937" y="824" type="curve"/>
      <point x="941" y="411"/>
      <point x="812" y="30"/>
    </contour>
  </outline>
</glyph>
<glyph name="R" format="1">
  <advance width="1273"/>
  <unicode hex="0052"/>
  <outline>
    <contour>
      <point x="668" y="1292" type="move" name="top"/>
    </contour>
    <contour>
      <point x="626" y="0" type="move" name="bottom"/>
    </contour>
    <contour>
      <point x="-32" y="33" type="line"/>
      <point x="-36" y="0" type="line"/>
      <point x="546" y="0" type="line"/>
      <point x="552" y="33" type="line"/>
      <point x="433" y="63" type="line"/>
      <point x="598" y="1273" type="line"/>
      <point x="580" y="1235" type="line"/>
      <point x="602" y="1249"/>
      <point x="634" y="1253"/>
      <point x="673" y="1253" type="curve"/>
      <point x="807" y="1253"/>
      <point x="858" y="1140"/>
      <point x="859" y="985" type="curve"/>
      <point x="860" y="818"/>
      <point x="805" y="581"/>
      <point x="593" y="600" type="curve"/>
      <point x="553" y="604"/>
      <point x="522" y="601"/>
      <point x="497" y="607" type="curve"/>
      <point x="489" y="546" type="line"/>
      <point x="530" y="546"/>
      <point x="566" y="546"/>
      <point x="638" y="546" type="curve"/>
      <point x="678" y="505"/>
      <point x="718" y="369"/>
      <point x="753" y="244" type="curve"/>
      <point x="787" y="124"/>
      <point x="834" y="0"/>
      <point x="877" y="0" type="curve"/>
      <point x="1254" y="0" type="line"/>
      <point x="1259" y="35" type="line"/>
      <point x="1185" y="49"/>
      <point x="1151" y="168"/>
      <point x="1106" y="286" type="curve"/>
      <point x="1045" y="447"/>
      <point x="975" y="597"/>
      <point x="769" y="613" type="curve"/>
      <point x="727" y="557" type="line"/>
      <point x="1065" y="591"/>
      <point x="1201" y="781"/>
      <point x="1200" y="984" type="curve"/>
      <point x="1198" y="1171"/>
      <point x="1086" y="1303"/>
      <point x="727" y="1303" type="curve"/>
      <point x="612" y="1303"/>
      <point x="530" y="1292"/>
      <point x="411" y="1292" type="curve"/>
      <point x="143" y="1292" type="line"/>
      <point x="139" y="1261" type="line"/>
      <point x="247" y="1228" type="line"/>
      <point x="87" y="63" type="line"/>
    </contour>
  </outline>
</glyph>
<glyph name="S" format="1">
  <advance width="1038"/>
  <unicode hex="0053"/>
  <outline>
    <contour>
      <point x="640" y="1292" type="move" name="top"/>
    </contour>
    <contour>
      <point x="443" y="0" type="move" name="bottom"/>
    </contour>
    <contour>
      <point x="446" y="-21" type="curve"/>
      <point x="809" y="-21"/>
      <point x="987" y="149"/>
      <point x="985" y="369" type="curve"/>
      <point x="984" y="534"/>
      <point x="861" y="645"/>
      <point x="715" y="736" type="curve"/>
      <point x="534" y="848"/>
      <point x="450" y="914"/>
      <point x="449" y="1021" type="curve"/>
      <point x="448" y="1170"/>
      <point x="527" y="1258"/>
      <point x="655" y="1258" type="curve"/>
      <point x="718" y="1258"/>
      <point x="762" y="1238"/>
      <point x="783" y="1220" type="curve"/>
      <point x="805" y="988" type="line"/>
      <point x="996" y="988" type="line"/>
      <point x="1041" y="1246" type="line"/>
      <point x="985" y="1277"/>
      <point x="862" y="1308"/>
      <point x="672" y="1308" type="curve"/>
      <point x="400" y="1308"/>
      <point x="147" y="1184"/>
      <point x="149" y="897" type="curve"/>
      <point x="150" y="726"/>
      <point x="275" y="619"/>
      <point x="430" y="522" type="curve"/>
      <point x="600" y="416"/>
      <point x="650" y="356"/>
      <point x="652" y="238" type="curve"/>
      <point x="653" y="122"/>
      <point x="597" y="30"/>
      <point x="454" y="30" type="curve"/>
      <point x="373" y="30"/>
      <point x="305" y="77"/>
      <point x="280" y="110" type="curve"/>
      <point x="265" y="334" type="line"/>
      <point x="77" y="334" type="line"/>
      <point x="24" y="65" type="line"/>
      <point x="68" y="34"/>
      <point x="278" y="-21"/>
    </contour>
  </outline>
</glyph>
<glyph name="T" format="1">
  <advance width="1275"/>
  <unicode hex="0054"/>
  <outline>
    <contour>
      <point x="738" y="1292" type="move" name="top"/>
    </contour>
    <contour>
      <point x="573" y="0" type="move" name="bottom"/>
    </contour>
    <contour>
      <point x="1334" y="1292" type="line"/>
      <point x="168" y="1292" type="line"/>
      <point x="78" y="820" type="line"/>
      <point x="240" y="820" type="line"/>
      <point x="418" y="1240" type="line"/>
      <point x="574" y="1247" type="line"/>
      <point x="414" y="74" type="line"/>
      <point x="202" y="34" type="line"/>
      <point x="198" y="0" type="line"/>
      <point x="988" y="0" type="line"/>
      <point x="991" y="34" type="line"/>
      <point x="770" y="74" type="line"/>
      <point x="930" y="1247" type="line"/>
      <point x="1075" y="1240" type="line"/>
      <point x="1144" y="820" type="line"/>
      <point x="1285" y="820" type="line"/>
    </contour>
  </outline>
</glyph>
<glyph name="U" format="1">
  <advance width="1244"/>
  <unicode hex="0055"/>
  <outline>
    <contour>
      <point x="810" y="1292" type="move" name="top"/>
    </contour>
    <contour>
      <point x="836" y="17" type="move" name="ogonek"/>
    </contour>
    <contour>
      <point x="1146" y="1289" type="move" name="topright"/>
    </contour>
    <contour>
      <point x="625" y="0" type="move" name="bottom"/>
    </contour>
    <contour>
      <point x="1129" y="531" type="curve"/>
      <point x="1233" y="1228" type="line"/>
      <point x="1336" y="1261" type="line"/>
      <point x="1337" y="1292" type="line"/>
      <point x="1009" y="1292" type="line"/>
      <point x="1005" y="1261" type="line"/>
      <point x="1149" y="1228" type="line"/>
      <point x="1060" y="532" type="line" smooth="yes"/>
      <point x="1025" y="253"/>
      <point x="940" y="92"/>
      <point x="703" y="92" type="curve"/>
      <point x="523" y="92"/>
      <point x="475" y="211"/>
      <point x="474" y="338" type="curve"/>
      <point x="473" y="397"/>
      <point x="479" y="462"/>
      <point x="489" y="531" type="curve"/>
      <point x="584" y="1228" type="line"/>
      <point x="729" y="1261" type="line"/>
      <point x="732" y="1292" type="line"/>
      <point x="134" y="1292" type="line"/>
      <point x="130" y="1261" type="line"/>
      <point x="229" y="1228" type="line"/>
      <point x="133" y="532" type="line" smooth="yes"/>
      <point x="126" y="481"/>
      <point x="123" y="434"/>
      <point x="123" y="390" type="curve"/>
      <point x="125" y="119"/>
      <point x="266" y="-17"/>
      <point x="605" y="-17" type="curve"/>
      <point x="992" y="-17"/>
      <point x="1080" y="200"/>
    </contour>
  </outline>
</glyph>
<glyph name="V" format="1">
  <advance width="1177"/>
  <unicode hex="0056"/>
  <outline>
    <contour>
      <point x="877" y="1443" type="move" name="top"/>
    </contour>
    <contour>
      <point x="163" y="1229" type="line"/>
      <point x="383" y="1" type="line"/>
      <point x="675" y="1" type="line"/>
      <point x="1196" y="1232" type="line"/>
      <point x="1322" y="1263" type="line"/>
      <point x="1326" y="1292" type="line"/>
      <point x="952" y="1292" type="line"/>
      <point x="948" y="1263" type="line"/>
      <point x="1090" y="1232" type="line"/>
      <point x="724" y="284" type="line"/>
      <point x="648" y="58" type="line"/>
      <point x="684" y="104" type="line"/>
      <point x="644" y="422" type="line"/>
      <point x="526" y="1229" type="line"/>
      <point x="664" y="1259" type="line"/>
      <point x="668" y="1292" type="line"/>
      <point x="60" y="1292" type="line"/>
      <point x="56" y="1259" type="line"/>
    </contour>
  </outline>
</glyph>
<glyph name="W" format="1">
  <advance width="1904"/>
  <unicode hex="0057"/>
  <outline>
    <contour>
      <point x="1066" y="1292" type="move" name="top"/>
    </contour>
    <contour>
      <point x="838" y="0" type="move" name="bottom"/>
    </contour>
    <contour>
      <point x="904" y="1229" type="line"/>
      <point x="1156" y="-3" type="line"/>
      <point x="1448" y="-1" type="line"/>
      <point x="1922" y="1232" type="line"/>
      <point x="2049" y="1263" type="line"/>
      <point x="2053" y="1292" type="line"/>
      <point x="1679" y="1292" type="line"/>
      <point x="1675" y="1263" type="line"/>
      <point x="1816" y="1232" type="line"/>
      <point x="1488" y="284" type="line"/>
      <point x="1416" y="67" type="line"/>
      <point x="1456" y="113" type="line"/>
      <point x="1418" y="417" type="line"/>
      <point x="1266" y="1229" type="line"/>
      <point x="1406" y="1259" type="line"/>
      <point x="1410" y="1292" type="line"/>
      <point x="802" y="1292" type="line"/>
      <point x="799" y="1259" type="line"/>
    </contour>
    <contour>
      <point x="161" y="1229" type="line"/>
      <point x="413" y="-3" type="line"/>
      <point x="704" y="-1" type="line"/>
      <point x="1183" y="1239" type="line"/>
      <point x="1076" y="1240" type="line"/>
      <point x="745" y="285" type="line"/>
      <point x="673" y="67" type="line"/>
      <point x="712" y="113" type="line"/>
      <point x="674" y="417" type="line"/>
      <point x="524" y="1229" type="line"/>
      <point x="662" y="1259" type="line"/>
      <point x="667" y="1292" type="line"/>
      <point x="58" y="1292" type="line"/>
      <point x="55" y="1259" type="line"/>
    </contour>
  </outline>
</glyph>
<glyph name="X" format="1">
  <advance width="1338"/>
  <unicode hex="0058"/>
  <outline>
    <contour>
      <point x="874" y="1443" type="move" name="top"/>
    </contour>
    <contour>
      <point x="606" y="0" type="move" name="bottom"/>
    </contour>
    <contour>
      <point x="-51" y="33" type="line"/>
      <point x="-56" y="0" type="line"/>
      <point x="395" y="0" type="line"/>
      <point x="400" y="33" type="line"/>
      <point x="226" y="74" type="line"/>
      <point x="619" y="565" type="line"/>
      <point x="810" y="695" type="line"/>
      <point x="1278" y="1217" type="line"/>
      <point x="1426" y="1261" type="line"/>
      <point x="1431" y="1292" type="line"/>
      <point x="998" y="1292" type="line"/>
      <point x="991" y="1261" type="line"/>
      <point x="1173" y="1217" type="line"/>
      <point x="789" y="741" type="line"/>
      <point x="595" y="609" type="line"/>
      <point x="123" y="74" type="line"/>
    </contour>
    <contour>
      <point x="614" y="33" type="line"/>
      <point x="609" y="0" type="line"/>
      <point x="1267" y="0" type="line"/>
      <point x="1271" y="33" type="line"/>
      <point x="1142" y="74" type="line"/>
      <point x="837" y="753" type="line"/>
      <point x="831" y="766" type="line"/>
      <point x="655" y="1218" type="line"/>
      <point x="807" y="1263" type="line"/>
      <point x="815" y="1293" type="line"/>
      <point x="153" y="1293" type="line"/>
      <point x="147" y="1262" type="line"/>
      <point x="272" y="1217" type="line"/>
      <point x="562" y="563" type="line"/>
      <point x="569" y="548" type="line"/>
      <point x="764" y="74" type="line"/>
    </contour>
  </outline>
</glyph>
<glyph name="Y" format="1">
  <advance width="1099"/>
  <unicode hex="0059"/>
  <outline>
    <contour>
      <point x="451" y="-144" type="move" name="btm"/>
    </contour>
    <contour>
      <point x="88" y="1292" type="move" name="topleft"/>
    </contour>
    <contour>
      <point x="708" y="1292" type="move" name="top"/>
    </contour>
    <contour>
      <point x="459" y="0" type="move" name="bottom"/>
    </contour>
    <contour>
      <point x="125" y="34" type="line"/>
      <point x="120" y="0" type="line"/>
      <point x="911" y="0" type="line"/>
      <point x="914" y="34" type="line"/>
      <point x="688" y="74" type="line"/>
      <point x="767" y="652" type="line"/>
      <point x="690" y="490" type="line"/>
      <point x="1138" y="1231" type="line"/>
      <point x="1265" y="1263" type="line"/>
      <point x="1269" y="1292" type="line"/>
      <point x="911" y="1292" type="line"/>
      <point x="907" y="1263" type="line"/>
      <point x="1031" y="1231" type="line"/>
      <point x="760" y="737" type="line"/>
      <point x="648" y="530" type="line"/>
      <point x="740" y="612" type="line"/>
      <point x="685" y="779" type="line"/>
      <point x="514" y="1228" type="line"/>
      <point x="645" y="1263" type="line"/>
      <point x="650" y="1292" type="line"/>
      <point x="53" y="1292" type="line"/>
      <point x="49" y="1263" type="line"/>
      <point x="149" y="1231" type="line"/>
      <point x="458" y="468" type="line"/>
      <point x="425" y="705" type="line"/>
      <point x="339" y="74" type="line"/>
    </contour>
  </outline>
</glyph>
<glyph name="Z" format="1">
  <advance width="1245"/>
  <unicode hex="005A"/>
  <outline>
    <contour>
      <point x="755" y="1292" type="move" name="top"/>
    </contour>
    <contour>
      <point x="573" y="0" type="move" name="bottom"/>
    </contour>
    <contour>
      <point x="1304" y="1292" type="line"/>
      <point x="239" y="1292" type="line"/>
      <point x="167" y="919" type="line"/>
      <point x="339" y="920" type="line"/>
      <point x="483" y="1223" type="line"/>
      <point x="931" y="1245" type="line"/>
      <point x="805" y="1111" type="line"/>
      <point x="-28" y="25" type="line"/>
      <point x="-17" y="0" type="line"/>
      <point x="1115" y="0" type="line"/>
      <point x="1202" y="397" type="line"/>
      <point x="1032" y="415" type="line"/>
      <point x="841" y="69" type="line"/>
      <point x="359" y="46" type="line"/>
      <point x="490" y="181" type="line"/>
      <point x="1316" y="1266" type="line"/>
    </contour>
  </outline>
</glyph>
<glyph name="Ezh" format="1">
  <advance width="1082"/>
  <outline>
    <contour>
      <point x="648" y="1292" type="move" name="top"/>
    </contour>
    <contour>
      <point x="417" y="-16" type="curve"/>
      <point x="792" y="-16"/>
      <point x="1043" y="132"/>
      <point x="1041" y="356" type="curve"/>
      <point x="1040" y="544"/>
      <point x="879" y="675"/>
      <point x="666" y="675" type="curve"/>
      <point x="701" y="653" type="line"/>
      <point x="1134" y="1261" type="line"/>
      <point x="1126" y="1292" type="line"/>
      <point x="173" y="1292" type="line"/>
      <point x="116" y="920" type="line"/>
      <point x="278" y="921" type="line"/>
      <point x="413" y="1223" type="line"/>
      <point x="789" y="1244" type="line"/>
      <point x="674" y="1111" type="line"/>
      <point x="371" y="669" type="line"/>
      <point x="401" y="633" type="line"/>
      <point x="435" y="645"/>
      <point x="465" y="648"/>
      <point x="485" y="648" type="curve"/>
      <point x="608" y="649"/>
      <point x="676" y="577"/>
      <point x="678" y="376" type="curve"/>
      <point x="679" y="181"/>
      <point x="595" y="34"/>
      <point x="405" y="34" type="curve"/>
      <point x="340" y="34"/>
      <point x="278" y="52"/>
      <point x="231" y="91" type="curve"/>
      <point x="196" y="385" type="line"/>
      <point x="19" y="386" type="line"/>
      <point x="-23" y="76" type="line"/>
      <point x="46" y="61"/>
      <point x="153" y="-16"/>
    </contour>
  </outline>
</glyph>
<glyph name="Germandbls" format="1">
  <advance width="1377"/>
  <outline>
    <contour>
      <point x="824" y="-16" type="curve"/>
      <point x="1150" y="-16"/>
      <point x="1361" y="147"/>
      <point x="1358" y="405" type="curve"/>
      <point x="1357" y="569"/>
      <point x="1206" y="726"/>
      <point x="942" y="723" type="curve"/>
      <point x="1303" y="1121" type="line"/>
      <point x="1322" y="1230" type="line"/>
      <point x="1262" y="1258"/>
      <point x="1134" y="1304"/>
      <point x="916" y="1304" type="curve"/>
      <point x="424" y="1304"/>
      <point x="206" y="1061"/>
      <point x="163" y="741" type="curve"/>
      <point x="71" y="63" type="line"/>
      <point x="-48" y="34" type="line"/>
      <point x="-53" y="0" type="line"/>
      <point x="409" y="0" type="line"/>
      <point x="511" y="781" type="line" smooth="yes"/>
      <point x="540" y="1005"/>
      <point x="635" y="1261"/>
      <point x="897" y="1261" type="curve"/>
      <point x="1000" y="1261"/>
      <point x="1074" y="1227"/>
      <point x="1107" y="1188" type="curve"/>
      <point x="709" y="720" type="line"/>
      <point x="700" y="686" type="line"/>
      <point x="901" y="654"/>
      <point x="1006" y="573"/>
      <point x="1007" y="389" type="curve"/>
      <point x="1009" y="216"/>
      <point x="963" y="36"/>
      <point x="839" y="36" type="curve"/>
      <point x="781" y="36"/>
      <point x="741" y="55"/>
      <point x="736" y="152" type="curve"/>
      <point x="728" y="292" type="line"/>
      <point x="601" y="292" type="line"/>
      <point x="553" y="40" type="line"/>
      <point x="620" y="35"/>
      <point x="689" y="-16"/>
    </contour>
  </outline>
</glyph>
<glyph name="Schwa" format="1">
  <advance width="1260"/>
  <outline>
    <contour>
      <point x="538" y="-19" type="curve"/>
      <point x="973" y="-19"/>
      <point x="1234" y="321"/>
      <point x="1230" y="787" type="curve"/>
      <point x="1228" y="1029"/>
      <point x="1129" y="1309"/>
      <point x="718" y="1309" type="curve"/>
      <point x="463" y="1309"/>
      <point x="359" y="1229"/>
      <point x="263" y="1229" type="curve"/>
      <point x="225" y="945" type="line"/>
      <point x="395" y="945" type="line"/>
      <point x="481" y="1120" type="line" smooth="yes"/>
      <point x="507" y="1180"/>
      <point x="605" y="1259"/>
      <point x="696" y="1259" type="curve"/>
      <point x="897" y="1259"/>
      <point x="890" y="970"/>
      <point x="892" y="754" type="curve"/>
      <point x="893" y="721"/>
      <point x="889" y="677"/>
      <point x="888" y="661" type="curve"/>
      <point x="118" y="661" type="line"/>
      <point x="100" y="614"/>
      <point x="77" y="506"/>
      <point x="77" y="407" type="curve"/>
      <point x="80" y="136"/>
      <point x="300" y="-19"/>
    </contour>
    <contour>
      <point x="543" y="30" type="curve"/>
      <point x="401" y="30"/>
      <point x="400" y="203"/>
      <point x="399" y="377" type="curve"/>
      <point x="398" y="436"/>
      <point x="413" y="541"/>
      <point x="427" y="604" type="curve"/>
      <point x="878" y="604" type="line"/>
      <point x="865" y="263"/>
      <point x="695" y="30"/>
    </contour>
  </outline>
</glyph>
